<svg xmlns="http://www.w3.org/2000/svg" viewBox="0 0 800 1200" width="800" height="1200" role="img" aria-label="Sagoma nera di confratello della Misericordia con buffa, cordiglio e rosario"><path fill="#000000" fill-rule="evenodd" d="M422,25 401,27 389,31 368,45 359,49 352,56 328,112 328,122 330,127 342,143 341,151 336,159 321,173 305,205 284,224 270,243 252,278 230,331 221,348 221,351 225,356 239,365 246,372 243,398 248,406 264,417 267,458 284,473 289,484 298,489 300,494 297,501 299,508 294,514 288,527 277,564 255,700 248,733 248,741 244,756 245,759 237,792 230,835 227,843 223,872 212,921 208,948 194,1011 171,1090 177,1096 191,1101 196,1105 194,1118 203,1125 220,1128 253,1128 256,1130 255,1139 257,1143 262,1146 275,1148 296,1147 297,1148 293,1159 294,1167 299,1172 307,1176 320,1179 354,1179 359,1177 364,1172 364,1165 359,1152 361,1150 379,1151 393,1147 397,1143 397,1129 402,1126 422,1126 423,1137 432,1144 481,1146 494,1151 511,1154 549,1154 568,1150 575,1147 579,1143 579,1139 570,1133 556,1130 549,1126 554,1121 554,1114 572,1104 585,1104 599,1108 611,1108 624,1103 628,1097 611,1030 611,1022 601,975 597,945 586,890 587,887 579,844 580,840 576,822 572,786 543,625 544,622 553,622 557,620 565,605 567,594 565,550 571,532 569,506 576,484 576,466 571,456 572,449 567,438 567,423 554,405 553,391 539,373 533,360 533,356 539,350 541,344 526,317 533,310 533,304 530,300 522,277 522,272 515,252 497,164 493,117 480,66 471,49 460,38 446,30Z M312,838 323,838 327,848 328,891 326,893 324,891 323,859 323,893 321,895 319,893 319,860 319,892 317,895 313,894 314,859 313,892 311,894 308,892 310,863 308,890 306,892 304,891 305,864 308,845Z M305,828 308,825 316,828 318,825 322,825 327,833 323,837 319,834 318,837 314,837 313,834 316,830 311,837 306,832Z M322,819 327,819 330,822 330,829 327,833 326,829 320,823Z M314,801 328,813 329,818 322,819 315,826 311,826 305,821 307,811 313,807 312,803Z M315,737 324,746 323,781 322,782 320,780 323,783 323,789 320,789 323,792 323,804 321,806 312,799 312,795 315,793 312,790 312,786 314,784 317,787 312,782 312,778 315,776 318,779 312,773 312,769 314,767 317,769 313,765 312,760 315,757 321,762 313,754 314,747 321,753 313,744 313,739Z M315,728 325,737 325,742 323,744 315,737 313,733Z M315,718 325,726 324,734 315,727Z M316,716 324,715 325,723 323,724Z M317,666 327,675 324,679 326,681 325,687 330,690 333,701 331,705 328,703 331,707 329,712 327,713 325,711 323,715 320,715 318,712 319,705 324,701 326,702 325,700 318,705 313,706 319,706 319,711 316,715 309,707 309,702 312,699 309,697 311,690 315,687 317,682 323,686 315,678 318,674 316,672Z M318,657 327,665 326,672 324,672 317,665 316,660Z M319,648 327,656 326,664 317,655 317,650Z M319,638 328,647 327,654 318,646 317,642Z M320,629 329,639 327,645 319,638 318,632Z M321,612 330,620 330,625 328,627 330,632 327,636 319,628 319,622 321,620 319,618 319,614Z M325,565 333,574 331,580 332,587 330,589 331,605 329,608 325,605 330,610 330,616 328,618 319,607 322,601 324,603 321,600 321,593 323,592 327,596 321,589 323,583 322,575 326,575 322,570Z M326,545 334,554 334,560 332,562 334,567 331,572 323,561 323,558 326,555 324,553 324,548Z M346,529 353,537 352,563 353,567 357,571 357,576 352,581 352,587 355,590 352,595 352,600 358,606 357,610 352,614 352,617 358,624 352,631 352,635 355,636 358,641 352,651 357,655 358,659 352,666 352,669 357,673 356,680 351,684 357,691 356,697 352,700 352,703 357,708 357,712 352,717 351,722 353,729 351,731 351,736 354,738 354,747 360,747 363,754 361,756 353,756 352,784 345,783 346,756 338,756 336,754 339,747 346,747 346,738 348,736 348,730 346,728 348,717 343,713 343,707 347,703 347,699 343,696 343,691 348,686 348,683 343,678 344,672 348,669 348,666 343,661 344,655 348,652 348,648 346,648 343,644 343,639 348,635 348,631 343,626 343,622 348,617 348,614 343,609 344,603 348,600 348,594 346,592 348,581 343,576 343,571 348,567 345,548 346,534 344,532Z M328,526 336,536 334,542 330,539 335,546 333,552 325,542 325,538 327,536 329,537 326,534 326,528Z M329,517 337,527 334,532 326,523Z M329,512 332,512 338,519 335,523 329,517Z M325,507 327,506 329,508 326,509Z M320,497 326,504 323,508 319,506 317,501Z M300,498 303,495 306,497 305,500 308,496 316,497 319,507 317,509 312,506 309,508 304,503 305,504 302,506 300,504Z M503,462 508,464 505,469 502,466Z M497,444 503,443 509,446 509,451 511,454 507,461 501,458 501,456 506,453 502,455 498,453 502,446 498,452 493,451Z M469,447 475,440 479,440 481,443 485,440 490,443 493,441 496,444 490,452 485,449 487,446 483,450 477,449 479,445 475,449 471,449Z M471,440 473,442 468,448 465,449 461,446 467,440Z M452,442 453,440 456,442 458,440 465,441 459,448Z M472,103 477,102 484,107 485,116 483,118 478,118 472,113 470,109Z M425,106 431,100 444,99 452,104 452,109 447,113 438,115 429,113Z"/></svg>
